<svg xmlns="http://www.w3.org/2000/svg" enable-background="new 0 0 32 32" viewBox="0 0 32 32" id="complain">
  <g id="Layer_22">
    <path fill="#cdf6f9" d="M25.27,22.43c0,1.73-1.4,3.13-3.14,3.13H17.4l-2.47,2.5c-0.43,0.44-1.16,0.44-1.59,0l-2.47-2.5H6.13
		C4.409,25.56,3,24.152,3,22.43V11.37c0-1.74,1.41-3.14,3.13-3.14h16.01c1.729,0,3.13,1.401,3.13,3.13V22.43z"></path>
    <path fill="#fff" d="M22.012,13.567l-2.972-2.972c-0.919-0.919-0.919-2.408,0-3.327l2.972-2.972c0.919-0.919,2.408-0.919,3.327,0
		l2.972,2.972c0.919,0.919,0.919,2.408,0,3.327l-2.972,2.972C24.42,14.485,22.931,14.485,22.012,13.567z"></path>
    <circle cx="9.339" cy="16.906" r="1.318" fill="#1a83a8"></circle>
    <circle cx="14.13" cy="16.906" r="1.318" fill="#1a83a8"></circle>
    <circle cx="18.92" cy="16.906" r="1.318" fill="#1a83a8"></circle>
    <path fill="#1a83a8" d="M25.27,17.154c-0.497,0-0.9,0.403-0.9,0.9v4.38c0,1.229-1.005,2.229-2.24,2.229h-4.73
		c-0.241,0-0.471,0.097-0.64,0.268l-2.474,2.504c-0.101,0.105-0.198,0.107-0.306-0.004l-2.47-2.5
		c-0.169-0.171-0.399-0.268-0.64-0.268h-4.74c-1.229,0-2.23-1-2.23-2.229V11.374c0-1.235,1-2.239,2.23-2.239h8.26
		c0.497,0,0.9-0.403,0.9-0.9s-0.403-0.9-0.9-0.9h-8.26c-2.222,0-4.03,1.813-4.03,4.04v11.061c0,2.222,1.808,4.03,4.03,4.03h4.364
		l2.202,2.229c0.374,0.382,0.898,0.602,1.439,0.602c0,0,0,0,0.001,0c0.541,0,1.065-0.22,1.434-0.598l2.206-2.232h4.354
		c2.228,0,4.04-1.809,4.04-4.03v-4.38C26.169,17.558,25.767,17.154,25.27,17.154z"></path>
    <path fill="#1a83a8" d="M28.948,6.63l-2.972-2.972c-1.229-1.229-3.372-1.229-4.6,0l-2.973,2.973c-0.614,0.614-0.952,1.431-0.952,2.3
		s0.338,1.686,0.953,2.3l2.972,2.972l0,0.001c0.614,0.614,1.431,0.952,2.3,0.952c0.869,0,1.686-0.338,2.3-0.952l2.972-2.973
		c0.614-0.614,0.953-1.431,0.953-2.3S29.563,7.245,28.948,6.63z M27.675,9.957l-2.972,2.973c-0.549,0.55-1.506,0.548-2.054,0.001
		c0-0.001,0-0.001,0-0.001l-2.973-2.973c-0.274-0.273-0.425-0.639-0.425-1.026c0-0.389,0.151-0.753,0.425-1.027l2.973-2.973
		c0.274-0.273,0.639-0.425,1.027-0.425c0.388,0,0.753,0.151,1.027,0.426l2.972,2.972c0.274,0.274,0.425,0.639,0.425,1.027
		C28.101,9.318,27.95,9.683,27.675,9.957z"></path>
    <path fill="#1a83a8" d="M23.676 5.686c-.497 0-.9.403-.9.9v2.133c0 .497.403.9.9.9s.9-.403.9-.9V6.586C24.576 6.089 24.173 5.686 23.676 5.686zM23.676 10.195c-.497 0-.9.403-.9.9v.18c0 .497.403.9.9.9s.9-.403.9-.9v-.18C24.576 10.599 24.173 10.195 23.676 10.195z"></path>
  </g>
</svg>
