<svg xmlns="http://www.w3.org/2000/svg" viewBox="0 0 64 64" id="parking">
  <path fill="#222" d="M55.55 21.62 42.38 8.45a1.534 1.534 0 0 0-1.06-.44H22.68a1.516 1.516 0 0 0-1.06.44L8.45 21.62a1.516 1.516 0 0 0-.44 1.06v18.64a1.516 1.516 0 0 0 .44 1.06l13.17 13.17a1.516 1.516 0 0 0 1.06.44h18.64a1.534 1.534 0 0 0 1.06-.44l13.17-13.17a1.516 1.516 0 0 0 .44-1.06V22.68a1.516 1.516 0 0 0-.44-1.06ZM33.99 35.7h-5.86v6.86a1.5 1.5 0 0 1-3 0V23.44a1.5 1.5 0 0 1 1.5-1.5h7.36a6.88 6.88 0 0 1 0 13.76Zm3.88-6.88a3.884 3.884 0 0 1-3.88 3.88h-5.86v-7.76h5.86a3.884 3.884 0 0 1 3.88 3.88Z"></path>
</svg>
