<svg xmlns="http://www.w3.org/2000/svg" viewBox="0 0 128 128" id="ease">
  <path d="M94.806 13.634a14.091 14.091 0 0 1 2.828-2.828l-4.359-4.36a2 2 0 0 0-2.828 2.828zM114.37 33.2l4.359 4.359a2 2 0 0 0 2.828-2.828l-4.357-4.36a14.092 14.092 0 0 1-2.83 2.829zM120 22a13.983 13.983 0 0 1-.16 2H126a2 2 0 0 0 0-4h-6.159a13.983 13.983 0 0 1 .159 2zm-34 2h6.159A13.983 13.983 0 0 1 92 22a13.983 13.983 0 0 1 .16-2H86a2 2 0 0 0 0 4zm4.447 10.73a2 2 0 1 0 2.828 2.828l4.359-4.358a14.091 14.091 0 0 1-2.828-2.828zM117.2 13.634l4.359-4.359a2 2 0 0 0-2.828-2.828l-4.359 4.359a14.092 14.092 0 0 1 2.828 2.828zM108 8.162V2a2 2 0 1 0-4 0v6.16a12.6 12.6 0 0 1 4 0zm-4 27.68V42a2 2 0 1 0 4 0v-6.16a12.6 12.6 0 0 1-4 0zM106 32a10 10 0 1 0-10-10 10.011 10.011 0 0 0 10 10zm0-16a6 6 0 1 1-6 6 6.006 6.006 0 0 1 6-6zm20 84h-8.686a6 6 0 0 0-1.088-7L98.771 74.978a3.986 3.986 0 0 0-5.482-.249l-10.1 8.508C79.744 79.471 71.238 70.1 71.156 70.012a11.62 11.62 0 0 0-7.308-3.906 13.9 13.9 0 0 1-1.188 3.9h.1a7.674 7.674 0 0 1 5.415 2.664c.487.537 11.952 13.165 13.373 14.69a2 2 0 0 0 2.751.166l11.6-9.769 17.474 18.044a2.018 2.018 0 0 1 .342 2.479 1.912 1.912 0 0 1-1.421.88 1.889 1.889 0 0 1-1.534-.551l-12.5-12.56a4 4 0 0 0-5.5-.159L77.132 99.884c-1.649.182-6.772.482-9.266-2.354L56.037 84.049a8.268 8.268 0 0 1-1.94-6.662 13.954 13.954 0 0 1-4.065.613 12.23 12.23 0 0 0 3 8.686L64.711 100h-7.723l-33.4-43.222a2 2 0 1 0-3.165 2.445l14.37 18.6L21.86 100H2.011a2 2 0 0 0 0 4h24.515l-12.244 20.992a2 2 0 1 0 3.455 2.016L31.157 104h65.7l13.42 23.007a2 2 0 1 0 3.455-2.016L101.484 104H126a2 2 0 0 0 0-4zm-99.51 0 10.945-18.763L51.934 100zM83 100l12.429-11.126L106.5 100zM5.676 57.866a1.947 1.947 0 0 0 1.969-2.23c-.738-3.966 1.328-8.37 5.14-10.959 3.961-2.69 8.753-2.673 11.65.042 1.52 1.424 4.423-.436 3.763-2.426-1.189-3.584.216-7.877 3.366-10.8l11.862 20.165a13.827 13.827 0 0 1 3.833-1.373L34.9 29.271c3.677-1.659 7.7-1.2 10.113 1.339 1.476 1.552 4.4-.236 3.731-2.267-1.364-4.114.685-9.162 4.872-12.005 3.721-2.527 8.207-2.68 11.162-.383a2.008 2.008 0 0 0 2.9-2.682A29.618 29.618 0 0 0 48.467.646C31.884-2.625 14.623 6.9 6 20.9-.638 31.667-2.394 45.653 3.932 56.976a1.813 1.813 0 0 0 1.744.89zm36.157-53.8a27.18 27.18 0 0 1 17.951 6.274 15.115 15.115 0 0 0-8.417 2.693 16.152 16.152 0 0 0-6.7 9.7C37.368 12.97 30.7 9.216 26.014 7.856a36.117 36.117 0 0 1 15.819-3.795zm-20.2 7.085c3.026.127 10.444 1.772 19.3 13.263a14.778 14.778 0 0 0-10.107 2.569 16.27 16.27 0 0 0-6.329 8.377c-5.875-13.388-4.059-21.247-2.865-24.214zm-4.961 3.133c-.795 5.164-.34 13.316 5.086 24.716a14.5 14.5 0 0 0-11.22 2.37 16.4 16.4 0 0 0-5.747 6.814c-2.656-11.416 1.951-24.778 11.88-33.905z"></path>
  <path d="M50.518 54.014a10 10 0 0 0-1.023 19.973c.175.009.349.013.523.013a10 10 0 0 0 .5-19.986ZM56 64.308A6 6 0 1 1 50 58c.1 0 .209 0 .314.008a5.959 5.959 0 0 1 4.146 1.972A5.958 5.958 0 0 1 56 64.308Z"></path>
</svg>
